<?xml version="1.0" encoding="UTF-8"?>
<svg width="54px" height="52px" viewBox="0 0 54 52" version="1.1" xmlns="http://www.w3.org/2000/svg" xmlns:xlink="http://www.w3.org/1999/xlink">
    <!-- Generator: Sketch 61.2 (89653) - https://sketch.com -->
    <title>Sakari_Logo_DEF_RGBBlack_04 Copy</title>
    <desc>Created with Sketch.</desc>
    <g id="Page-1" stroke="none" stroke-width="1" fill="none" fill-rule="evenodd">
        <g id="Desktop-v3" transform="translate(-250.000000, -91.000000)" fill="#000000" fill-rule="nonzero">
            <g id="Sakari_Logo_DEF_RGBBlack_04-Copy" transform="translate(232.000000, 74.000000)">
                <path d="M64.1910803,35.8771313 C65.5133748,32.1650464 65.4268696,24.3435459 65.4076462,24.3284226 L65.4076462,24.3284226 L55.6888499,17.3166678 L55.6888499,17.3166678 C55.6737458,17.3057078 48.1560275,19.6360722 45.0047648,22.0324293 C41.8535021,19.6360722 34.3357838,17.3057078 34.3206797,17.3166678 L34.3206797,17.3166678 L24.6032565,24.3284226 L24.6032565,24.3284226 C24.5881524,24.3394213 24.4961547,32.1567973 25.8184493,35.8771313 C22.5491,38.1126314 17.9917837,44.4891684 18.0000111,44.5070414 L18.0000111,44.5070414 L21.7073902,55.8481484 L21.7073902,55.8481484 C21.7073902,55.8660214 29.1743038,58.3668667 33.1425606,58.2678778 C34.2739943,62.0459554 38.9754861,68.3166293 38.9947095,68.3166293 L51.0065815,68.3166293 C51.0244318,68.3166293 55.7272967,62.0459554 56.8573573,58.2678778 C60.8269872,58.3668667 68.2870353,55.8660214 68.2925277,55.8481484 L68.2925277,55.8481484 L71.999948,44.5070414 L71.999948,44.5070414 C72.0177459,44.4905433 67.467295,38.1140062 64.1910803,35.8771313 Z M48.2837257,64.6650375 L41.7395348,64.6650375 C39.7183328,64.6650375 37.9195728,63.864877 36.3926864,62.2838038 C35.2841934,61.123723 34.449075,59.7299315 33.9485698,58.2046349 C34.1918552,58.1721538 34.4311324,58.1145621 34.6625814,58.0327791 L34.9729018,57.9145423 C37.1369062,57.0648873 41.8480097,54.7895167 45.0116303,53.240065 C48.3359035,54.8733823 53.3696853,57.3041106 55.3606792,58.0382785 C55.5921282,58.1200614 55.8314054,58.1776532 56.0746908,58.2101343 C55.5741856,59.7354309 54.7390672,61.1292224 53.6305741,62.2893032 C52.1078071,63.864877 50.3035547,64.6650375 48.2837257,64.6650375 Z M24.3712027,52.1374383 L22.3500006,45.9588791 C21.7252405,44.0505924 21.9380709,42.1093095 22.9788801,40.1749008 C23.7527109,38.7628343 24.8316702,37.5415892 26.1370083,36.6003005 C26.2435059,36.8204162 26.372831,37.0287056 26.5228492,37.221731 C26.5860117,37.3014721 26.6601591,37.3867125 26.7315603,37.4774524 C28.2145074,39.2647525 31.8504742,43.0029596 34.3179335,45.5106792 C33.7796786,49.1540218 33.0066237,54.6575315 32.9187454,56.763796 C32.9116877,57.0079963 32.9305593,57.2522564 32.9750425,57.4924645 C31.360616,57.4920483 29.7662984,57.1338095 28.3065051,56.4434568 C26.3196305,55.4975626 24.9959628,54.0470997 24.3712027,52.1374383 Z M26.0683533,30.7365811 C26.367689,28.5670736 27.3480818,26.8691385 28.983443,25.6895204 L31.6307783,23.7812338 L34.2767405,21.8715723 C35.9121017,20.6919542 37.8467985,20.2904991 40.0135491,20.6782057 C41.5985205,20.9699687 43.09917,21.6099649 44.4074666,22.5521212 C44.2306498,22.7186007 44.0714442,22.9028876 43.9323743,23.1020597 C43.8184071,23.2725406 43.6907088,23.4718933 43.5506527,23.6973681 C43.4806246,23.8101055 43.4133428,23.9283423 43.333703,24.0534533 C43.2966293,24.1153214 43.2581826,24.1785643 43.2197358,24.2445569 C41.8892026,26.4745576 39.8309269,30.3145033 38.4001575,33.0229504 C34.7435943,33.6416313 29.231974,34.6122727 27.1860561,35.1800843 C26.9484531,35.2480968 26.7184094,35.3402313 26.4995065,35.4550535 C26.0057853,33.9346542 25.8584611,32.3228308 26.0683533,30.7379559 L26.0683533,30.7365811 Z M55.7451469,21.8715723 L58.3924823,23.7812338 L61.0398176,25.6895204 C62.6738056,26.8691385 63.6555716,28.5670736 63.9549072,30.7365811 C64.1646956,32.3254697 64.0154765,33.9412477 63.5182617,35.4646774 C63.2993587,35.3498552 63.0693151,35.2577207 62.8317121,35.1897082 C62.6820442,35.1484628 62.5158992,35.1058426 62.3319039,35.0604726 C59.9976352,34.4830372 55.0091658,33.6058853 51.62173,33.0325744 C49.8984904,29.771439 47.2662592,24.8687372 46.0895132,23.1116836 C45.9500285,22.9128352 45.790858,22.7285889 45.6144208,22.5617451 C46.9225823,21.6193486 48.4232876,20.9793287 50.0083384,20.6878296 C52.1805813,20.2918739 54.1111589,20.693329 55.7451469,21.8729471 L55.7451469,21.8715723 Z M62.9031132,36.7529084 C61.6769356,38.2899865 58.1370858,41.9512022 55.5693902,44.5647849 C55.3455751,43.0675774 55.1904149,42.0639396 55.1904149,42.0639396 L46.3201938,42.0639396 L45.9165027,41.7724722 L46.0702898,41.3008999 L53.2461063,36.1246036 C53.2461063,36.1246036 52.7778795,35.2227045 52.0734796,33.8808545 C55.3799025,34.4431666 59.8589522,35.2392026 62.0627765,35.7753927 C62.2742338,35.826262 62.4650946,35.8757565 62.6312396,35.9211264 C62.8398372,35.9886947 63.0405535,36.0785789 63.2299108,36.1892214 C63.1630158,36.3349043 63.086407,36.4759153 63.0006033,36.6112992 C62.9717682,36.6594188 62.9374407,36.7102882 62.9031132,36.7542832 L62.9031132,36.7529084 Z M55.6256873,57.3151093 C53.7747496,56.6276862 49.1721209,54.4210579 45.8766828,52.8056135 C47.2415434,52.1319389 48.1546544,51.6741151 48.1546544,51.6741151 L45.408456,43.3013012 L45.5636162,42.8283541 L46.0661705,42.8283541 L53.241987,48.0032755 C53.241987,48.0032755 53.9628641,47.282856 55.027016,46.2022269 C55.5089739,49.5018579 56.1254954,53.972858 56.2985059,56.2193569 C56.3149831,56.4352077 56.327341,56.6318107 56.3343092,56.8022917 C56.3360342,57.0208914 56.313467,57.2390115 56.2669246,57.452594 C56.1068416,57.4348044 55.9481241,57.4063275 55.7918323,57.3673535 C55.7410276,57.3522302 55.6778651,57.335732 55.6284335,57.3164842 L55.6256873,57.3151093 Z M34.9440667,57.103383 C34.7422212,57.1858738 34.5582259,57.2573658 34.3948271,57.3164842 C34.1858802,57.3859282 33.9699079,57.4320363 33.7508435,57.4539688 C33.7043012,57.2403863 33.681734,57.0222663 33.6834589,56.8036665 C33.7659476,54.8445106 34.4621089,49.8166977 34.9907521,46.2036017 C36.0576502,47.2842309 36.7757811,48.0046503 36.7757811,48.0046503 L36.7757811,48.0046503 L43.9515977,42.8297289 L44.4514058,42.8297289 L44.6051929,43.3013012 L41.8589945,51.6754899 C41.8589945,51.6754899 42.7721054,52.1333137 44.1369661,52.8069884 C41.1353712,54.2808236 37.0407893,56.2509783 34.9440667,57.103383 Z M45.0116303,23.045691 C45.1762226,23.1905423 45.3236528,23.3538444 45.451022,23.5323866 C46.5495014,25.1643291 48.9579175,29.6380789 50.6687991,32.8703425 C49.1652554,32.6187456 48.1560275,32.4578886 48.1560275,32.4578886 L48.1560275,32.4578886 L45.4098291,40.8307025 L45.0061379,41.1221699 L44.6010736,40.8307025 L41.8548752,32.4578886 C41.8548752,32.4578886 40.8456472,32.6201205 39.3421036,32.8703425 C40.7536496,30.2045156 42.6375417,26.6931582 43.873331,24.6295139 C44.135593,24.1909379 44.3676467,23.8183546 44.5598806,23.5296369 C44.6918072,23.3518236 44.8433488,23.1894816 45.0116303,23.045691 L45.0116303,23.045691 Z M54.8979447,45.2535829 C54.1660828,45.9959999 53.5577999,46.6091814 53.1678397,47.0010126 L47.3802264,42.8297289 L54.528581,42.8297289 C54.6123401,43.3741681 54.7414114,44.2265728 54.8938254,45.2535829 L54.8979447,45.2535829 Z M43.5520258,40.0649131 L37.7685319,35.8936295 C38.0225552,35.405559 38.4235002,34.6397697 38.9082042,33.7199975 C39.9394017,33.5467669 40.7962157,33.4051577 41.3427091,33.3157927 L43.5520258,40.0649131 Z M36.8664057,47.0010126 C36.4764455,46.6091814 35.8667894,45.9959999 35.1363006,45.2535829 C35.2887147,44.2265728 35.4109205,43.3741681 35.5001719,42.8297289 L42.6498996,42.8297289 L36.8664057,47.0010126 Z M45.0184958,44.5386629 L46.432788,48.8611796 L47.2278124,51.2877833 C46.7321236,51.5338807 45.9549494,51.9202125 45.0184958,52.380786 C44.0820421,51.9202125 43.3048679,51.5338807 42.8091791,51.2877833 L45.0184958,44.5386629 Z M46.4781003,40.0649131 L47.2470358,37.7180505 L48.6874169,33.3185424 C49.2366566,33.4079074 50.0907243,33.5495166 51.1219218,33.7227472 C51.6066259,34.6425194 52.0075708,35.4083087 52.2615942,35.8963792 L46.4781003,40.0649131 Z M36.7799004,36.1259785 L43.9543439,41.3022747 L44.1095041,41.773847 L43.6975743,42.0653144 L34.8328457,42.0653144 C34.8328457,42.0653144 34.6763124,43.0689522 34.4524972,44.5661598 C32.3351782,42.409026 29.5560254,39.5410966 27.959111,37.740048 C27.6199555,37.3578408 27.3343508,37.0237531 27.1201473,36.7542832 C26.9889366,36.57852 26.8779302,36.3885083 26.7892304,36.1878466 C26.9797681,36.0774015 27.181929,35.9884113 27.392021,35.9225012 C29.2937634,35.3959351 34.3261721,34.4995353 37.949781,33.8822294 C37.244008,35.226829 36.7771542,36.1259785 36.7771542,36.1259785 L36.7799004,36.1259785 Z M57.1100076,56.7706702 C57.101769,56.567193 57.0866649,56.3307194 57.0660684,56.0681238 C56.8738345,53.6140232 56.1968966,48.8075606 55.7108195,45.5175534 C58.3032308,42.8819731 62.1877285,38.8811704 63.5059038,37.2286052 C63.6559305,37.0358554 63.784827,36.8275149 63.8903716,36.6071747 C65.1956472,37.5485325 66.2745929,38.7697621 67.0484998,40.181775 C68.0906821,42.1065598 68.3021394,44.0574667 67.6773792,45.9657533 L65.6506848,52.1374383 C65.0272977,54.0457249 63.7036301,55.4961877 61.7181286,56.4489562 C60.258863,57.1395852 58.6650312,57.4982898 57.0509643,57.4993387 C57.0963679,57.259229 57.1161601,57.0149681 57.1100076,56.7706702 L57.1100076,56.7706702 Z" id="Shape"></path>
            </g>
        </g>
    </g>
</svg>